<svg width="37" height="24" viewBox="0 0 37 24" fill="none" xmlns="http://www.w3.org/2000/svg">
<path d="M36.0771 0H0.0771484V24H36.0771V0Z" fill="#DE2910"/>
<path d="M6.07761 2.40001L8.19364 8.91247L2.65381 4.88754H9.50142L3.96159 8.91247L6.07761 2.40001Z" fill="#FFDE00"/>
<path d="M12.5468 1.29568L12.3465 3.56939L11.1721 1.61215L13.2726 2.50532L11.0483 3.01738L12.5468 1.29568Z" fill="#FFDE00"/>
<path d="M15.3386 3.96444L14.2716 5.98222L13.9488 3.72264L15.5381 5.36095L13.2893 4.96969L15.3386 3.96444Z" fill="#FFDE00"/>
<path d="M15.6043 7.9885L13.8069 9.39547L14.434 7.20076L15.2167 9.3449L13.3232 8.07032L15.6043 7.9885Z" fill="#FFDE00"/>
<path d="M12.5005 9.67718L12.3946 11.9573L11.1401 10.0504L13.2758 10.8557L11.0746 11.4595L12.5005 9.67718Z" fill="#FFDE00"/>
</svg>
